<svg width="24" height="24" viewBox="0 0 24 24" fill="none" xmlns="http://www.w3.org/2000/svg">
<path fill-rule="evenodd" clip-rule="evenodd" d="M12 0.875C12.4282 0.875 12.8193 1.11808 13.0088 1.50205L15.8373 7.23227L22.1627 8.15683C22.5864 8.21875 22.9381 8.51576 23.0702 8.92301C23.2022 9.33027 23.0917 9.77718 22.785 10.0759L18.2089 14.533L19.2888 20.8298C19.3612 21.2519 19.1877 21.6785 18.8412 21.9302C18.4948 22.1819 18.0354 22.215 17.6564 22.0157L12 19.0411L6.34367 22.0157C5.96463 22.215 5.50531 22.1819 5.15883 21.9302C4.81236 21.6785 4.63883 21.2519 4.71122 20.8298L5.79119 14.533L1.21508 10.0759C0.908388 9.77718 0.797831 9.33027 0.929881 8.92301C1.06193 8.51576 1.4137 8.21875 1.83733 8.15683L8.16274 7.23227L10.9912 1.50205C11.1808 1.11808 11.5718 0.875 12 0.875ZM12 4.54166L9.91883 8.75795C9.7551 9.08966 9.43876 9.31967 9.07274 9.37317L4.417 10.0537L7.78498 13.3341C8.05034 13.5926 8.17146 13.9651 8.10884 14.3302L7.31424 18.9631L11.4764 16.7743C11.8042 16.6019 12.1959 16.6019 12.5237 16.7743L16.6858 18.9631L15.8912 14.3302C15.8286 13.9651 15.9497 13.5926 16.2151 13.3341L19.5831 10.0537L14.9273 9.37317C14.5613 9.31967 14.245 9.08966 14.0812 8.75795L12 4.54166Z" fill="black"/>
</svg>
