<svg width="24" height="24" viewBox="0 0 24 24" fill="none" xmlns="http://www.w3.org/2000/svg">
<path fill-rule="evenodd" clip-rule="evenodd" d="M12 0.875C12.4282 0.875 12.8193 1.11808 13.0088 1.50205L15.8373 7.23227L22.1627 8.15683C22.5864 8.21875 22.9381 8.51576 23.0702 8.92301C23.2022 9.33027 23.0917 9.77718 22.785 10.0759L18.2089 14.533L19.2888 20.8298C19.3612 21.2519 19.1877 21.6785 18.8412 21.9302C18.4948 22.1819 18.0354 22.215 17.6564 22.0157L12 19.0411L6.34367 22.0157C5.96463 22.215 5.50531 22.1819 5.15883 21.9302C4.81236 21.6785 4.63883 21.2519 4.71122 20.8298L5.79119 14.533L1.21508 10.0759C0.908388 9.77718 0.797831 9.33027 0.929881 8.92301C1.06193 8.51576 1.4137 8.21875 1.83733 8.15683L8.16274 7.23227L10.9912 1.50205C11.1808 1.11808 11.5718 0.875 12 0.875Z" fill="black"/>
</svg>
